<svg fill="#ffffff" xmlns="http://www.w3.org/2000/svg" xmlns:xlink="http://www.w3.org/1999/xlink" version="1.1" x="0px" y="0px" viewBox="0 0 512 640" style="enable-background:new 0 0 512 512;" xml:space="preserve"><g><path d="M445,272.3c-5.5,0-10,4.5-10,10v141.5c0,11-9,20-20,20H86.3c-11,0-20-9-20-20V100.8c0-11,9-20,20-20h137.4   c5.5,0,10-4.5,10-10s-4.5-10-10-10H86.3c-22.1,0-40,17.9-40,40v323.1c0,22.1,17.9,40,40,40H415c22.1,0,40-17.9,40-40V282.3   C455,276.8,450.5,272.3,445,272.3z"/><polygon points="275.3,275.1 230.9,232.3 213.7,291.6  "/><path d="M402.4,58.7L240.7,213.9l53.9,52l159.8-153.4c7.4-7.1,11.4-16.7,11.4-26.9s-4.1-19.8-11.4-26.9   C439.7,44.6,416.9,44.6,402.4,58.7z"/></g></svg>
