<svg fill="#E03E3E" xmlns="http://www.w3.org/2000/svg" xmlns:xlink="http://www.w3.org/1999/xlink" version="1.1" x="0px" y="0px" viewBox="0 0 32 40" enable-background="new 0 0 32 32" xml:space="preserve"><g display="none"><rect x="-182.596" y="-182.699" display="inline" fill="#ffffff" width="240.181" height="241.399"/></g><g display="none"><path display="inline" d="M25.261,1.414l5.325,5.325l-8.554,8.554L21.325,16l0.707,0.707l8.554,8.554l-5.325,5.325l-8.554-8.554   L16,21.325l-0.707,0.707l-8.554,8.554l-5.325-5.325l8.554-8.554L10.675,16l-0.707-0.707L1.414,6.739l5.325-5.325l8.554,8.554   L16,10.675l0.707-0.707L25.261,1.414 M25.261,0L16,9.261L6.739,0L0,6.739L9.261,16L0,25.261L6.739,32L16,22.739L25.261,32   L32,25.261L22.739,16L32,6.739L25.261,0L25.261,0z"/></g><g display="none"><g display="inline"><g><polygon fill="#000000" points="0.707,25.261 9.968,16 0.707,6.739 6.739,0.707 16,9.968 25.261,0.707 31.293,6.739 22.032,16      31.293,25.261 25.261,31.293 16,22.032 6.739,31.293    "/></g><g><g><path d="M25.261,1.414l5.325,5.325l-8.554,8.554L21.325,16l0.707,0.707l8.554,8.554l-5.325,5.325l-8.554-8.554L16,21.325      l-0.707,0.707l-8.554,8.554l-5.325-5.325l8.554-8.554L10.675,16l-0.707-0.707L1.414,6.739l5.325-5.325l8.554,8.554L16,10.675      l0.707-0.707L25.261,1.414 M25.261,0L16,9.261L6.739,0L0,6.739L9.261,16L0,25.261L6.739,32L16,22.739L25.261,32L32,25.261      L22.739,16L32,6.739L25.261,0L25.261,0z"/></g></g></g></g><g display="none"><g display="inline"><polygon fill="#000000" points="25.261,0 16,9.261 6.739,0 0,6.739 9.261,16 0,25.261 6.739,32 16,22.739 25.261,32 32,25.261     22.739,16 32,6.739   "/></g></g><g><g><polygon points="25.261,0 16,9.261 6.739,0 0,6.739 9.261,16 0,25.261 6.739,32 16,22.739 25.261,32 32,25.261 22.739,16     32,6.739   "/></g></g></svg>
