<?xml version="1.0" encoding="utf-8"?>
<!-- Generator: Adobe Illustrator 18.0.0, SVG Export Plug-In . SVG Version: 6.00 Build 0)  -->
<!DOCTYPE svg PUBLIC "-//W3C//DTD SVG 1.1//EN" "http://www.w3.org/Graphics/SVG/1.1/DTD/svg11.dtd">
<svg version="1.1" id="Layer_1" xmlns="http://www.w3.org/2000/svg" xmlns:xlink="http://www.w3.org/1999/xlink" x="0px" y="0px"
	 viewBox="0 0 865.3 353.9" enable-background="new 0 0 865.3 353.9" xml:space="preserve">
<g>
	<g>
		<path fill="#FFFFFF" d="M350.7,233.2c-6.4-9.1-13.8-19.5-22-31.1c-8.2-11.6-16.7-23.6-25.5-35.8c-8.8-12.3-17.5-24.4-26.2-36.4
			c-8.7-11.9-16.6-22.9-23.7-32.8c-7.1-9.9-13.2-18.3-18.3-25.2c-5.1-6.9-8.4-11.4-10-13.7c-0.9-1.6-2.2-2.4-3.9-2.4s-3,0.7-3.9,2
			c-0.9,1.4-1.3,2.8-1.3,4.4v201.6c0,1.4,0.5,2.5,1.6,3.6c1.1,1,2.3,1.5,3.6,1.5s2.5-0.5,3.6-1.4c1.1-0.9,1.6-2.1,1.6-3.7v-186
			l136,190.7c0.9,1.4,2.3,2,4.1,2c1.4,0,2.6-0.5,3.7-1.5c1.1-1,1.7-2.2,1.7-3.6c0-0.7-1.9-3.9-5.7-9.8
			C362.2,249.8,357.1,242.3,350.7,233.2z"/>
		<g>
			<path fill="#FFFFFF" d="M614.1,149.5c-1-1.1-2.3-1.7-3.9-1.7l-137.3-0.6v118.3c0,1.4,0.4,2.5,1.4,3.6c0.9,1,2,1.5,3.4,1.5
				c0.1,0,0.3,0,0.4,0c0.1,0,0.2,0,0.4,0c3.5,0,5.2-1.8,5.2-5.4V159h126.5c1.4,0,2.6-0.6,3.7-1.7c1.1-1.1,1.7-2.4,1.7-3.7
				C615.6,152,615.1,150.6,614.1,149.5z"/>
			<path fill="#FFFFFF" d="M644,0H478.5c-0.2,0-0.4,0-0.6,0c-0.2,0-0.3,0-0.5,0c-1.6,0-2.8,0.7-3.7,2L349.8,175.9L225.7,3.4
				c-0.9-1.6-2.3-2.4-4.2-2.4c-1.5,0-2.7,0.5-3.6,1.5c-0.9,1-1.3,2.2-1.3,3.6c0,1.4,0.3,2.5,1,3.4l186,259.1c0.9,1.4,2.3,2,4.1,2
				c1.4,0,2.6-0.5,3.7-1.5c1.1-1,1.7-2.3,1.7-3.9c0-0.9-1.3-3.3-3.9-7.1c-2.6-3.8-5.8-8.5-9.6-14c-3.8-5.5-8.1-11.4-12.9-17.6
				c-4.7-6.2-9.2-12.2-13.4-17.9c-4.2-5.7-7.8-10.8-11-15c-3.2-4.3-5.2-7.2-6.1-8.8L472.9,21.3v103.9l135.6,0.3
				c3.6,0,5.4-1.7,5.4-5.2c0-1.6-0.6-2.9-1.7-3.8c-1.1-0.9-2.4-1.4-3.7-1.4H483.7V10.5H644c3.6,0,5.4-1.7,5.4-5.2
				C649.4,1.7,647.6,0,644,0z"/>
		</g>
	</g>
	<g>
		<g>
			<path fill="#FFFFFF" d="M16.8,345.2h-0.2L5.9,329.1v24.5H0v-34.3h6.4l10.4,16.2l10.4-16.2h6.4v34.3h-6V329L16.8,345.2z"/>
			<path fill="#FFFFFF" d="M134.1,353.6h-6.4l-3.5-8.3H108l-3.5,8.3h-6.2l15.1-34.5h5.6L134.1,353.6z M116.1,326.3l-5.9,13.7H122
				L116.1,326.3z"/>
			<path fill="#FFFFFF" d="M208.8,353.6h-6.1v-28.7h-10.9v-5.6h27.8v5.6h-10.9V353.6z"/>
			<path fill="#FFFFFF" d="M299.3,353.6h-6.1v-28.7h-10.9v-5.6h27.8v5.6h-10.9V353.6z"/>
			<path fill="#FFFFFF" d="M474.3,324.8h-19.5v9.4h17.3v5.5h-17.3v14h-6v-34.3h25.5V324.8z"/>
			<path fill="#FFFFFF" d="M565.1,324.7h-19.4v8.9h17.2v5.4h-17.2v9.2h19.6v5.4h-25.7v-34.3h25.4V324.7z"/>
			<path fill="#FFFFFF" d="M651.7,319.2h5.1l8.4,25.5l8.2-25.4h6.3l-11.9,34.5h-5.2l-8.4-24.6l-8.4,24.6h-5.2l-11.9-34.5h6.5
				l8.2,25.4L651.7,319.2z"/>
			<path fill="#FFFFFF" d="M770.1,324.7h-19.4v8.9h17.2v5.4h-17.2v9.2h19.6v5.4h-25.7v-34.3h25.4V324.7z"/>
			<path fill="#FFFFFF" d="M858.2,353.6l-8.4-11.9h-7.5v11.9h-6v-34.3h15.3c7.9,0,12.7,4.2,12.7,10.9c0,5.7-3.4,9.1-8.2,10.4l9.3,13
				H858.2z M851,324.8h-8.8v11.5h8.8c4.3,0,7.1-2.3,7.1-5.8C858.1,326.8,855.5,324.8,851,324.8z"/>
		</g>
	</g>
</g>
</svg>
