<?xml version="1.0" encoding="utf-8"?><!--Generator: Adobe Illustrator 18.0.0, SVG Export Plug-In . SVG Version: 6.00 Build 0)--><!DOCTYPE svg PUBLIC "-//W3C//DTD SVG 1.1//EN" "http://www.w3.org/Graphics/SVG/1.1/DTD/svg11.dtd"><svg xmlns="http://www.w3.org/2000/svg" viewBox="0 0 865.3 353.9"><g fill="#FFF"><path d="M350.7 233.2c-6.4-9.1-13.8-19.5-22-31.1-8.2-11.6-16.7-23.6-25.5-35.8-8.8-12.3-17.5-24.4-26.2-36.4-8.7-11.9-16.6-22.9-23.7-32.8-7.1-9.9-13.2-18.3-18.3-25.2-5.1-6.9-8.4-11.4-10-13.7-.9-1.6-2.2-2.4-3.9-2.4s-3 .7-3.9 2c-.9 1.4-1.3 2.8-1.3 4.4v201.6c0 1.4.5 2.5 1.6 3.6 1.1 1 2.3 1.5 3.6 1.5s2.5-.5 3.6-1.4c1.1-.9 1.6-2.1 1.6-3.7v-186l136 190.7c.9 1.4 2.3 2 4.1 2 1.4 0 2.6-.5 3.7-1.5s1.7-2.2 1.7-3.6c0-.7-1.9-3.9-5.7-9.8-3.9-5.8-9-13.3-15.4-22.4zM614.1 149.5c-1-1.1-2.3-1.7-3.9-1.7l-137.3-.6v118.3c0 1.4.4 2.5 1.4 3.6.9 1 2 1.5 3.4 1.5h.8c3.5 0 5.2-1.8 5.2-5.4V159h126.5c1.4 0 2.6-.6 3.7-1.7s1.7-2.4 1.7-3.7c0-1.6-.5-3-1.5-4.1z"/><path d="M644 0H477.4c-1.6 0-2.8.7-3.7 2L349.8 175.9 225.7 3.4c-.9-1.6-2.3-2.4-4.2-2.4-1.5 0-2.7.5-3.6 1.5-.9 1-1.3 2.2-1.3 3.6s.3 2.5 1 3.4l186 259.1c.9 1.4 2.3 2 4.1 2 1.4 0 2.6-.5 3.7-1.5s1.7-2.3 1.7-3.9c0-.9-1.3-3.3-3.9-7.1-2.6-3.8-5.8-8.5-9.6-14s-8.1-11.4-12.9-17.6c-4.7-6.2-9.2-12.2-13.4-17.9-4.2-5.7-7.8-10.8-11-15-3.2-4.3-5.2-7.2-6.1-8.8L472.9 21.3v103.9l135.6.3c3.6 0 5.4-1.7 5.4-5.2 0-1.6-.6-2.9-1.7-3.8-1.1-.9-2.4-1.4-3.7-1.4H483.7V10.5H644c3.6 0 5.4-1.7 5.4-5.2 0-3.6-1.8-5.3-5.4-5.3z"/></g><g fill="#FFF"><path d="M16.8 345.2h-.2L5.9 329.1v24.5H0v-34.3h6.4l10.4 16.2 10.4-16.2h6.4v34.3h-6V329l-10.8 16.2zM134.1 353.6h-6.4l-3.5-8.3H108l-3.5 8.3h-6.2l15.1-34.5h5.6l15.1 34.5zm-18-27.3l-5.9 13.7H122l-5.9-13.7zM208.8 353.6h-6.1v-28.7h-10.9v-5.6h27.8v5.6h-10.9v28.7zM299.3 353.6h-6.1v-28.7h-10.9v-5.6h27.8v5.6h-10.9v28.7zM474.3 324.8h-19.5v9.4h17.3v5.5h-17.3v14h-6v-34.3h25.5v5.4zM565.1 324.7h-19.4v8.9h17.2v5.4h-17.2v9.2h19.6v5.4h-25.7v-34.3H565v5.4zM651.7 319.2h5.1l8.4 25.5 8.2-25.4h6.3l-11.9 34.5h-5.2l-8.4-24.6-8.4 24.6h-5.2l-11.9-34.5h6.5l8.2 25.4 8.3-25.5zM770.1 324.7h-19.4v8.9h17.2v5.4h-17.2v9.2h19.6v5.4h-25.7v-34.3H770v5.4zM858.2 353.6l-8.4-11.9h-7.5v11.9h-6v-34.3h15.3c7.9 0 12.7 4.2 12.7 10.9 0 5.7-3.4 9.1-8.2 10.4l9.3 13h-7.2zm-7.2-28.8h-8.8v11.5h8.8c4.3 0 7.1-2.3 7.1-5.8 0-3.7-2.6-5.7-7.1-5.7z"/></g></svg>