<?xml version="1.0" encoding="utf-8"?>
<!-- Generator: Adobe Illustrator 18.0.0, SVG Export Plug-In . SVG Version: 6.00 Build 0)  -->
<!DOCTYPE svg PUBLIC "-//W3C//DTD SVG 1.1//EN" "http://www.w3.org/Graphics/SVG/1.1/DTD/svg11.dtd">
<svg version="1.1" id="Layer_1" xmlns="http://www.w3.org/2000/svg" xmlns:xlink="http://www.w3.org/1999/xlink" x="0px" y="0px"
	 viewBox="212.1 126.2 425.8 265.8" enable-background="new 212.1 126.2 425.8 265.8" xml:space="preserve">
<g>
	<g>
		<path fill="#FFFFFF" d="M344.5,355.3c-6.3-8.9-13.6-19.2-21.6-30.6s-16.4-23.2-25-35.2c-8.6-12.1-17.2-24-25.7-35.8
			c-8.5-11.7-16.3-22.5-23.3-32.2c-7-9.7-13-18-18-24.8c-5-6.8-8.3-11.2-9.8-13.5c-0.9-1.6-2.2-2.4-3.8-2.4s-2.9,0.7-3.8,2
			c-0.9,1.4-1.3,2.8-1.3,4.3v198c0,1.4,0.5,2.5,1.6,3.5c1.1,1,2.3,1.5,3.5,1.5c1.3,0,2.5-0.5,3.5-1.4c1.1-0.9,1.6-2.1,1.6-3.6V202.6
			l133.6,187.3c0.9,1.4,2.3,2,4,2c1.4,0,2.6-0.5,3.6-1.5c1.1-1,1.7-2.2,1.7-3.5c0-0.7-1.9-3.8-5.6-9.6
			C355.8,371.6,350.8,364.2,344.5,355.3z"/>
		<g>
			<path fill="#FFFFFF" d="M603.2,273c-1-1.1-2.3-1.7-3.8-1.7l-134.9-0.6V387c0,1.4,0.4,2.5,1.4,3.5c0.9,1,2,1.5,3.3,1.5
				c0.1,0,0.3,0,0.4,0s0.2,0,0.4,0c3.4,0,5.1-1.8,5.1-5.3V282.4h124.3c1.4,0,2.6-0.6,3.6-1.7c1.1-1.1,1.7-2.4,1.7-3.6
				C604.7,275.5,604.2,274.1,603.2,273z"/>
			<path fill="#FFFFFF" d="M632.6,126.2H470c-0.2,0-0.4,0-0.6,0s-0.3,0-0.5,0c-1.6,0-2.8,0.7-3.6,2L343.6,299L221.7,129.5
				c-0.9-1.6-2.3-2.4-4.1-2.4c-1.5,0-2.7,0.5-3.5,1.5c-0.9,1-1.3,2.2-1.3,3.5s0.3,2.5,1,3.3L396.5,390c0.9,1.4,2.3,2,4,2
				c1.4,0,2.6-0.5,3.6-1.5c1.1-1,1.7-2.3,1.7-3.8c0-0.9-1.3-3.2-3.8-7c-2.6-3.7-5.7-8.3-9.4-13.8c-3.7-5.4-8-11.2-12.7-17.3
				c-4.6-6.1-9-12-13.2-17.6c-4.1-5.6-7.7-10.6-10.8-14.7c-3.1-4.2-5.1-7.1-6-8.6l114.6-160.6v102.1l133.2,0.3
				c3.5,0,5.3-1.7,5.3-5.1c0-1.6-0.6-2.8-1.7-3.7c-1.1-0.9-2.4-1.4-3.6-1.4H475.1V136.5h157.5c3.5,0,5.3-1.7,5.3-5.1
				C637.9,127.8,636.1,126.2,632.6,126.2z"/>
		</g>
	</g>
	<g>
		<g>
			<path fill="#FFFFFF" d="M842.9,450.8"/>
		</g>
	</g>
</g>
</svg>
